<svg xmlns="http://www.w3.org/2000/svg" width="488" height="312" viewBox="0 0 488 312" font-family="Helvetica, Arial, sans-serif" font-size="15">
<rect width="488" height="312" fill="#ffffff"/>
<defs>
<marker id="a-blue" viewBox="0 0 10 10" refX="9" refY="5" markerWidth="5" markerHeight="5" orient="auto-start-reverse"><path d="M0,0 L10,5 L0,10 z" fill="#2563eb"/></marker>
<marker id="a-green" viewBox="0 0 10 10" refX="9" refY="5" markerWidth="5" markerHeight="5" orient="auto-start-reverse"><path d="M0,0 L10,5 L0,10 z" fill="#16a34a"/></marker>
<marker id="a-red" viewBox="0 0 10 10" refX="9" refY="5" markerWidth="5" markerHeight="5" orient="auto-start-reverse"><path d="M0,0 L10,5 L0,10 z" fill="#dc2626"/></marker>
<marker id="a-purple" viewBox="0 0 10 10" refX="9" refY="5" markerWidth="5" markerHeight="5" orient="auto-start-reverse"><path d="M0,0 L10,5 L0,10 z" fill="#7c3aed"/></marker>
</defs>
<line x1="24" y1="288" x2="24" y2="24" stroke="#e5e7eb"/>
<line x1="68" y1="288" x2="68" y2="24" stroke="#e5e7eb"/>
<line x1="112" y1="288" x2="112" y2="24" stroke="#e5e7eb"/>
<line x1="156" y1="288" x2="156" y2="24" stroke="#e5e7eb"/>
<line x1="200" y1="288" x2="200" y2="24" stroke="#e5e7eb"/>
<line x1="244" y1="288" x2="244" y2="24" stroke="#e5e7eb"/>
<line x1="288" y1="288" x2="288" y2="24" stroke="#e5e7eb"/>
<line x1="332" y1="288" x2="332" y2="24" stroke="#e5e7eb"/>
<line x1="376" y1="288" x2="376" y2="24" stroke="#e5e7eb"/>
<line x1="420" y1="288" x2="420" y2="24" stroke="#e5e7eb"/>
<line x1="464" y1="288" x2="464" y2="24" stroke="#e5e7eb"/>
<line x1="24" y1="288" x2="464" y2="288" stroke="#e5e7eb"/>
<line x1="24" y1="244" x2="464" y2="244" stroke="#e5e7eb"/>
<line x1="24" y1="200" x2="464" y2="200" stroke="#e5e7eb"/>
<line x1="24" y1="156" x2="464" y2="156" stroke="#e5e7eb"/>
<line x1="24" y1="112" x2="464" y2="112" stroke="#e5e7eb"/>
<line x1="24" y1="68" x2="464" y2="68" stroke="#e5e7eb"/>
<line x1="24" y1="24" x2="464" y2="24" stroke="#e5e7eb"/>
<line x1="24" y1="156" x2="464" y2="156" stroke="#374151" stroke-width="1.5"/>
<line x1="244" y1="288" x2="244" y2="24" stroke="#374151" stroke-width="1.5"/>
<text x="452" y="148" fill="#374151" font-style="italic">x</text>
<text x="252" y="40" fill="#374151" font-style="italic">y</text>
<circle cx="244" cy="156" r="3.5" fill="#111827"/>
<line x1="244" y1="156" x2="420" y2="68" stroke="#7c3aed" stroke-width="3" stroke-dasharray="7 5" marker-end="url(#a-purple)"/>
<line x1="244" y1="156" x2="68" y2="244" stroke="#dc2626" stroke-width="3" marker-end="url(#a-red)"/>
<line x1="244" y1="156" x2="332" y2="112" stroke="#2563eb" stroke-width="3" marker-end="url(#a-blue)"/>
<text x="334.2" y="131.8" fill="#2563eb" font-weight="bold" text-anchor="start">v = [2, 1]</text>
<text x="420" y="54.80000000000001" fill="#7c3aed" font-weight="bold" text-anchor="middle">2v = [4, 2]</text>
<text x="68" y="268.2" fill="#dc2626" font-weight="bold" text-anchor="middle">−2v = [−4, −2]</text>
</svg>
